<svg id="svg" version="1.1" xmlns="http://www.w3.org/2000/svg" xmlns:xlink="http://www.w3.org/1999/xlink" width="400" height="400" viewBox="0, 0, 400,400"><g id="svgg"><path id="path0" d="M108.626 59.557 C 108.476 59.801,107.654 60.000,106.800 60.000 C 105.946 60.000,105.156 60.148,105.043 60.330 C 104.931 60.511,104.074 60.618,103.137 60.566 C 101.952 60.502,101.268 60.675,100.888 61.137 C 100.587 61.502,100.474 61.544,100.636 61.232 C 100.863 60.795,100.755 60.737,100.166 60.980 C 99.745 61.153,99.130 61.303,98.800 61.313 C 98.470 61.322,97.962 61.616,97.670 61.965 C 97.379 62.314,97.259 62.368,97.404 62.084 C 97.741 61.423,95.690 61.857,94.785 62.639 C 94.418 62.956,93.773 63.067,93.185 62.915 C 92.317 62.692,92.263 62.738,92.727 63.304 C 93.196 63.877,93.096 63.927,91.804 63.767 C 90.920 63.657,90.033 63.812,89.531 64.163 C 89.079 64.480,88.460 64.645,88.157 64.528 C 87.855 64.412,87.492 64.616,87.352 64.981 C 87.212 65.347,86.852 65.552,86.553 65.437 C 86.254 65.323,86.052 65.440,86.105 65.698 C 86.157 65.956,85.775 66.196,85.256 66.231 C 84.737 66.266,84.155 66.544,83.962 66.847 C 83.770 67.151,83.609 67.243,83.606 67.051 C 83.603 66.859,83.295 66.949,82.923 67.251 C 82.463 67.624,82.343 67.640,82.547 67.300 C 82.712 67.025,82.657 66.800,82.424 66.800 C 82.191 66.800,82.000 66.980,82.000 67.200 C 82.000 67.420,81.629 67.600,81.176 67.600 C 80.723 67.600,80.442 67.744,80.551 67.920 C 80.659 68.096,80.381 68.469,79.932 68.749 C 79.262 69.168,79.171 69.165,79.423 68.730 C 79.591 68.438,79.221 68.650,78.600 69.200 C 77.979 69.750,77.601 69.975,77.759 69.700 C 77.918 69.425,77.876 69.200,77.666 69.200 C 77.457 69.200,77.182 69.470,77.055 69.800 C 76.929 70.130,76.549 70.400,76.213 70.400 C 75.876 70.400,75.600 70.670,75.600 71.000 C 75.600 71.330,75.465 71.579,75.300 71.553 C 74.467 71.421,74.000 71.662,74.000 72.224 C 74.000 72.567,73.841 72.749,73.646 72.628 C 73.174 72.337,70.800 73.180,70.800 73.639 C 70.800 73.838,70.485 74.003,70.100 74.006 C 69.502 74.011,69.487 74.069,70.000 74.400 C 70.504 74.726,70.479 74.789,69.846 74.794 C 69.431 74.797,68.656 75.270,68.124 75.845 C 67.591 76.419,67.049 76.782,66.918 76.652 C 66.672 76.405,65.200 77.908,65.200 78.406 C 65.200 78.562,64.763 78.642,64.228 78.583 C 63.666 78.522,63.162 78.722,63.033 79.059 C 62.884 79.446,62.975 79.542,63.305 79.344 C 63.637 79.145,63.620 79.268,63.255 79.719 C 62.955 80.089,62.551 80.294,62.358 80.174 C 61.907 79.895,57.502 84.318,57.781 84.770 C 57.897 84.957,57.678 85.085,57.296 85.055 C 56.913 85.025,56.644 85.221,56.697 85.491 C 56.750 85.761,56.255 86.261,55.597 86.602 C 54.939 86.942,54.400 87.497,54.400 87.834 C 54.400 88.200,54.212 88.331,53.932 88.158 C 53.613 87.961,53.549 88.091,53.732 88.568 C 53.910 89.031,53.833 89.211,53.504 89.101 C 52.935 88.912,52.275 89.483,51.890 90.500 C 51.744 90.885,51.330 91.200,50.970 91.200 C 50.542 91.200,50.397 91.415,50.553 91.821 C 50.689 92.177,50.622 92.337,50.395 92.197 C 50.040 91.977,49.827 92.506,49.953 93.300 C 49.979 93.465,49.730 93.600,49.400 93.600 C 49.070 93.600,48.821 93.735,48.847 93.900 C 48.954 94.575,48.782 95.197,48.500 95.153 C 47.753 95.035,47.200 95.235,47.200 95.624 C 47.200 95.857,47.425 95.933,47.700 95.794 C 47.975 95.655,47.705 95.929,47.100 96.404 C 46.455 96.910,46.000 97.657,46.000 98.210 C 46.000 98.728,45.792 99.281,45.538 99.438 C 45.225 99.632,45.185 99.543,45.415 99.162 C 45.689 98.707,45.617 98.711,45.033 99.185 C 44.577 99.556,44.481 99.827,44.773 99.924 C 45.120 100.040,45.120 100.215,44.771 100.634 C 44.517 100.941,44.122 101.075,43.893 100.934 C 43.650 100.784,43.596 100.870,43.764 101.141 C 43.926 101.404,43.765 101.715,43.392 101.858 C 42.865 102.061,42.840 102.179,43.266 102.450 C 43.666 102.703,43.674 102.789,43.300 102.794 C 43.025 102.797,42.800 103.081,42.800 103.424 C 42.800 103.767,42.620 103.936,42.400 103.800 C 42.180 103.664,42.000 103.901,42.000 104.327 C 42.000 104.753,41.732 105.324,41.404 105.596 C 41.077 105.868,40.887 106.217,40.983 106.372 C 41.079 106.527,40.807 106.907,40.379 107.215 C 39.521 107.833,39.304 108.598,40.100 108.193 C 40.375 108.053,40.195 108.297,39.700 108.734 C 39.205 109.171,38.800 109.814,38.800 110.164 C 38.800 110.514,38.620 110.800,38.400 110.800 C 38.180 110.800,38.000 110.991,38.000 111.224 C 38.000 111.457,38.180 111.536,38.400 111.400 C 39.196 110.908,37.853 113.457,36.819 114.400 C 36.569 114.628,36.306 115.561,36.282 116.300 C 36.274 116.575,36.106 116.800,35.910 116.800 C 35.713 116.800,35.655 116.965,35.780 117.168 C 35.905 117.370,35.778 117.775,35.498 118.068 C 35.218 118.360,34.928 119.230,34.854 120.000 C 34.780 120.770,34.585 121.490,34.420 121.600 C 33.798 122.014,33.073 123.724,33.660 123.390 C 34.095 123.142,34.103 123.187,33.700 123.621 C 33.425 123.918,33.200 124.585,33.200 125.104 C 33.200 125.697,33.034 125.945,32.753 125.771 C 32.443 125.579,32.354 126.000,32.464 127.147 C 32.574 128.303,32.468 128.800,32.111 128.800 C 31.782 128.800,31.600 129.369,31.600 130.400 C 31.600 131.280,31.409 132.000,31.176 132.000 C 30.925 132.000,30.833 132.513,30.950 133.255 C 31.068 134.002,30.936 134.721,30.624 135.034 C 30.313 135.344,30.120 136.382,30.151 137.578 C 30.179 138.690,30.026 139.658,29.810 139.730 C 29.594 139.802,29.415 141.501,29.409 143.530 C 29.404 145.549,29.310 147.201,29.200 147.201 C 28.359 147.206,28.531 161.394,29.389 162.782 C 29.624 163.162,29.573 163.231,29.219 163.012 C 28.839 162.777,28.791 162.934,29.024 163.650 C 29.195 164.172,29.349 165.620,29.367 166.867 C 29.385 168.114,29.564 169.284,29.764 169.467 C 29.980 169.664,29.995 169.571,29.802 169.238 C 29.588 168.869,29.628 168.770,29.920 168.951 C 30.181 169.112,30.313 170.084,30.241 171.312 C 30.167 172.560,30.347 173.857,30.688 174.537 C 31.002 175.163,31.157 175.776,31.033 175.900 C 30.909 176.025,31.030 176.403,31.303 176.740 C 31.715 177.249,31.698 177.295,31.200 177.008 C 30.804 176.780,30.850 176.948,31.336 177.503 C 31.812 178.045,31.979 178.636,31.809 179.171 C 31.610 179.797,31.724 180.008,32.273 180.032 C 32.673 180.049,32.784 180.151,32.520 180.258 C 32.190 180.392,32.151 180.745,32.394 181.386 C 32.589 181.898,32.656 182.411,32.543 182.524 C 32.429 182.638,32.658 183.223,33.052 183.824 C 33.446 184.425,33.820 185.296,33.882 185.758 C 34.125 187.562,34.438 188.424,34.777 188.214 C 34.971 188.094,35.080 188.447,35.020 188.998 C 34.960 189.549,35.065 190.000,35.255 190.000 C 35.445 190.000,35.600 190.551,35.600 191.224 C 35.600 191.937,35.767 192.344,36.000 192.200 C 36.220 192.064,36.400 192.287,36.400 192.696 C 36.400 193.105,36.625 193.682,36.900 193.979 C 37.306 194.417,37.288 194.457,36.800 194.194 C 36.470 194.016,36.650 194.379,37.200 195.000 C 37.750 195.621,37.975 195.999,37.700 195.841 C 37.425 195.682,37.200 195.743,37.200 195.976 C 37.200 196.209,37.380 196.400,37.600 196.400 C 37.820 196.400,38.000 196.678,38.000 197.017 C 38.000 197.356,38.360 198.020,38.800 198.492 C 39.240 198.964,39.600 199.677,39.600 200.075 C 39.600 200.474,39.825 200.803,40.100 200.806 C 40.492 200.811,40.494 200.879,40.109 201.124 C 39.748 201.354,39.827 201.587,40.409 202.006 C 40.844 202.320,41.200 202.997,41.200 203.512 C 41.200 204.026,41.338 204.362,41.507 204.258 C 41.675 204.154,42.018 204.503,42.269 205.035 C 42.613 205.764,42.612 205.935,42.263 205.732 C 42.008 205.584,42.102 205.808,42.471 206.231 C 42.841 206.654,43.142 207.173,43.142 207.384 C 43.141 207.596,43.469 207.898,43.870 208.056 C 44.272 208.214,44.369 208.356,44.086 208.372 C 43.694 208.393,43.675 208.593,44.006 209.211 C 44.245 209.657,44.630 209.905,44.863 209.761 C 45.137 209.592,45.191 209.798,45.016 210.350 C 44.817 210.977,44.915 211.200,45.391 211.200 C 45.745 211.200,46.006 211.425,45.970 211.700 C 45.849 212.634,45.999 213.334,46.264 213.069 C 46.677 212.657,47.627 214.264,47.369 214.937 C 47.229 215.302,47.469 215.716,47.980 215.989 C 48.443 216.237,48.717 216.611,48.588 216.820 C 48.458 217.029,48.554 217.200,48.800 217.200 C 49.046 217.200,49.135 217.381,48.998 217.603 C 48.861 217.824,49.041 218.118,49.398 218.254 C 49.754 218.391,49.948 218.759,49.828 219.072 C 49.707 219.385,49.775 219.539,49.977 219.414 C 50.515 219.082,51.033 219.971,51.150 221.424 C 51.178 221.767,51.359 221.949,51.554 221.829 C 51.748 221.709,52.129 222.146,52.400 222.800 C 52.671 223.454,53.080 223.874,53.308 223.733 C 53.546 223.586,53.604 223.670,53.445 223.928 C 53.291 224.176,53.524 224.686,53.962 225.061 C 54.401 225.436,54.687 225.860,54.598 226.003 C 54.510 226.146,54.969 226.845,55.619 227.556 C 56.268 228.267,56.800 229.108,56.800 229.425 C 56.800 229.741,57.049 230.000,57.354 230.000 C 57.996 230.000,59.200 231.686,59.200 232.586 C 59.200 232.924,59.335 233.201,59.500 233.203 C 59.665 233.204,60.226 233.832,60.748 234.597 C 61.269 235.362,61.882 235.873,62.109 235.732 C 62.341 235.589,62.404 235.669,62.253 235.914 C 62.105 236.154,62.231 236.497,62.533 236.675 C 62.836 236.854,63.299 237.410,63.562 237.911 C 63.827 238.416,64.237 238.701,64.482 238.549 C 64.748 238.385,64.810 238.460,64.638 238.738 C 64.481 238.992,64.543 239.200,64.776 239.200 C 65.009 239.200,65.200 239.571,65.200 240.024 C 65.200 240.477,65.348 240.756,65.529 240.644 C 65.903 240.413,66.903 241.492,68.026 243.339 C 68.448 244.033,68.840 244.543,68.896 244.474 C 69.174 244.137,70.325 244.929,70.165 245.347 C 69.975 245.842,70.683 246.719,72.559 248.312 C 73.153 248.816,73.508 249.425,73.355 249.673 C 73.202 249.921,73.239 250.025,73.438 249.904 C 73.811 249.677,74.554 250.293,74.762 251.000 C 74.827 251.220,75.042 251.355,75.240 251.300 C 75.438 251.245,75.603 251.515,75.606 251.900 C 75.611 252.498,75.669 252.513,76.000 252.000 C 76.312 251.517,76.389 251.579,76.394 252.318 C 76.400 253.168,78.288 255.526,78.782 255.300 C 78.902 255.245,79.003 255.335,79.006 255.500 C 79.020 256.160,79.681 256.797,80.089 256.545 C 80.332 256.395,80.410 256.460,80.266 256.693 C 80.125 256.922,80.311 257.355,80.681 257.655 C 81.260 258.124,81.304 258.116,81.000 257.600 C 80.693 257.080,80.738 257.074,81.333 257.557 C 81.710 257.863,81.934 258.200,81.829 258.305 C 81.551 258.583,82.657 259.600,83.238 259.600 C 83.510 259.600,83.633 259.700,83.510 259.823 C 83.223 260.110,89.044 266.000,89.615 266.000 C 89.853 266.000,89.965 266.135,89.866 266.300 C 89.629 266.691,90.640 267.626,90.957 267.309 C 91.091 267.176,91.200 267.232,91.200 267.433 C 91.201 268.024,93.056 270.011,93.340 269.726 C 93.483 269.583,93.600 269.685,93.600 269.952 C 93.600 270.218,94.050 270.886,94.600 271.436 C 95.150 271.986,95.600 272.303,95.600 272.139 C 95.600 271.975,96.527 272.822,97.660 274.021 C 98.793 275.219,99.491 275.885,99.211 275.500 C 98.536 274.572,98.863 274.614,100.000 275.600 C 100.507 276.040,100.817 276.400,100.687 276.400 C 100.558 276.400,101.442 277.390,102.652 278.600 C 103.862 279.810,104.987 280.800,105.151 280.800 C 105.315 280.800,105.859 281.353,106.359 282.030 C 106.883 282.738,107.502 283.170,107.821 283.047 C 108.125 282.930,108.498 283.035,108.649 283.279 C 108.829 283.570,108.730 283.613,108.362 283.403 C 107.524 282.925,109.317 284.525,110.222 285.063 C 110.650 285.317,110.951 285.736,110.890 285.993 C 110.830 286.249,110.976 286.338,111.215 286.191 C 111.455 286.043,112.378 286.704,113.267 287.661 C 114.156 288.617,115.060 289.350,115.276 289.289 C 115.492 289.227,115.764 289.540,115.880 289.984 C 115.996 290.428,116.250 290.692,116.445 290.572 C 116.640 290.451,116.800 290.548,116.800 290.786 C 116.800 291.025,117.255 291.393,117.810 291.604 C 118.366 291.815,118.925 292.261,119.053 292.594 C 119.181 292.927,119.626 293.200,120.043 293.200 C 120.496 293.200,120.802 293.481,120.805 293.900 C 120.807 294.320,121.448 294.906,122.405 295.364 C 123.282 295.785,124.000 296.380,124.000 296.688 C 124.000 296.996,124.180 297.136,124.400 297.000 C 124.620 296.864,124.800 297.033,124.800 297.376 C 124.800 297.724,125.139 298.000,125.567 298.000 C 125.988 298.000,126.393 298.161,126.467 298.358 C 126.540 298.555,127.208 299.053,127.952 299.465 C 128.695 299.877,129.315 300.391,129.329 300.607 C 129.365 301.153,130.145 301.949,130.458 301.760 C 130.600 301.675,130.819 301.874,130.946 302.202 C 131.072 302.531,131.451 302.800,131.787 302.800 C 132.124 302.800,132.400 302.980,132.400 303.200 C 132.400 303.420,132.681 303.600,133.024 303.600 C 133.367 303.600,133.539 303.775,133.407 303.988 C 133.275 304.202,133.623 304.491,134.181 304.631 C 134.738 304.771,135.095 305.046,134.974 305.243 C 134.852 305.439,134.999 305.600,135.300 305.600 C 135.602 305.600,136.455 306.185,137.197 306.900 C 137.938 307.615,138.409 307.930,138.243 307.600 C 138.077 307.270,138.224 307.349,138.570 307.776 C 138.917 308.204,139.200 308.409,139.200 308.234 C 139.200 308.059,139.740 308.493,140.400 309.200 C 141.060 309.907,141.605 310.331,141.612 310.142 C 141.619 309.954,141.808 310.115,142.032 310.500 C 142.256 310.885,142.701 311.200,143.020 311.200 C 143.339 311.200,143.600 311.391,143.600 311.624 C 143.600 311.857,143.760 311.949,143.955 311.828 C 144.150 311.707,144.532 311.877,144.804 312.204 C 145.076 312.532,145.591 312.803,145.949 312.806 C 146.452 312.811,146.480 312.888,146.073 313.146 C 145.693 313.388,145.910 313.632,146.856 314.023 C 148.176 314.570,148.840 315.050,150.556 316.700 C 151.070 317.195,151.707 317.600,151.969 317.600 C 152.232 317.600,152.336 317.780,152.200 318.000 C 151.978 318.360,152.503 318.573,153.300 318.447 C 153.465 318.421,153.600 318.591,153.600 318.824 C 153.600 319.057,153.780 319.136,154.000 319.000 C 154.220 318.864,154.400 319.018,154.400 319.343 C 154.400 319.667,154.940 320.172,155.600 320.464 C 156.260 320.756,156.800 321.131,156.800 321.298 C 156.800 321.464,156.980 321.600,157.200 321.600 C 157.420 321.600,157.960 321.960,158.400 322.400 C 158.840 322.840,159.470 323.200,159.800 323.200 C 160.130 323.200,160.400 323.363,160.400 323.563 C 160.400 323.762,160.763 323.830,161.206 323.714 C 161.852 323.545,161.957 323.646,161.737 324.221 C 161.520 324.785,161.609 324.882,162.151 324.674 C 162.562 324.516,162.743 324.569,162.597 324.805 C 162.463 325.022,162.681 325.200,163.081 325.200 C 163.482 325.200,164.133 325.630,164.528 326.156 C 165.023 326.815,165.520 327.053,166.123 326.922 C 166.832 326.767,166.885 326.813,166.400 327.159 C 165.885 327.527,165.902 327.589,166.524 327.594 C 166.922 327.597,167.136 327.780,167.000 328.000 C 166.864 328.220,167.134 328.400,167.600 328.400 C 168.066 328.400,168.336 328.580,168.200 328.800 C 168.064 329.020,168.233 329.200,168.576 329.200 C 168.919 329.200,169.200 329.380,169.200 329.600 C 169.200 329.820,169.550 330.000,169.977 330.000 C 170.405 330.000,170.990 330.315,171.277 330.700 C 171.565 331.085,172.070 331.453,172.400 331.517 C 172.730 331.581,173.293 331.979,173.650 332.400 C 174.008 332.821,174.405 333.061,174.533 332.934 C 174.661 332.806,175.083 332.823,175.472 332.972 C 176.074 333.203,176.091 333.298,175.589 333.615 C 175.126 333.908,175.198 333.989,175.924 333.994 C 176.432 333.997,176.766 334.135,176.666 334.300 C 176.566 334.465,177.108 334.917,177.869 335.305 C 178.631 335.693,179.141 335.828,179.003 335.605 C 178.491 334.777,179.313 335.236,180.074 336.204 C 180.509 336.756,181.009 337.118,181.187 337.008 C 181.364 336.899,181.739 337.085,182.019 337.423 C 182.299 337.760,182.783 337.939,183.094 337.819 C 183.405 337.700,183.930 337.873,184.261 338.203 C 184.607 338.550,185.287 338.727,185.866 338.622 C 186.622 338.485,186.815 338.584,186.648 339.020 C 186.449 339.537,187.872 339.873,189.300 339.647 C 189.465 339.621,189.600 339.795,189.600 340.033 C 189.600 340.272,189.825 340.388,190.100 340.291 C 190.375 340.194,191.005 340.265,191.500 340.448 C 192.046 340.649,192.400 340.627,192.400 340.390 C 192.400 340.176,192.591 340.000,192.824 340.000 C 193.057 340.000,193.144 340.167,193.018 340.371 C 192.626 341.005,194.000 341.158,200.000 341.145 C 205.881 341.133,208.126 340.927,207.816 340.426 C 207.722 340.274,208.271 340.199,209.036 340.259 C 209.802 340.319,210.332 340.214,210.216 340.026 C 210.100 339.838,210.283 339.577,210.623 339.446 C 211.043 339.285,211.146 339.368,210.944 339.705 C 210.710 340.094,210.774 340.097,211.244 339.717 C 211.573 339.451,212.245 339.339,212.738 339.468 C 213.371 339.634,213.600 339.541,213.517 339.151 C 213.440 338.790,213.745 338.616,214.400 338.647 C 214.950 338.672,215.528 338.494,215.684 338.249 C 215.840 338.005,216.515 337.863,217.184 337.933 C 218.095 338.028,218.400 337.896,218.400 337.407 C 218.400 337.015,218.585 336.867,218.861 337.038 C 219.114 337.194,219.564 336.990,219.861 336.585 C 220.157 336.179,220.400 336.003,220.400 336.193 C 220.400 336.384,220.879 336.103,221.465 335.570 C 222.050 335.036,222.402 334.870,222.246 335.200 C 222.090 335.530,222.263 335.395,222.630 334.900 C 222.997 334.405,223.513 334.000,223.776 334.000 C 224.039 334.000,224.962 333.369,225.827 332.598 C 226.692 331.826,227.625 331.281,227.900 331.385 C 228.175 331.489,228.400 331.327,228.400 331.025 C 228.400 330.681,228.685 330.550,229.161 330.674 C 229.687 330.811,230.005 330.614,230.188 330.037 C 230.341 329.554,230.794 329.200,231.256 329.200 C 231.696 329.200,232.327 328.930,232.657 328.600 C 232.987 328.270,233.114 328.000,232.940 328.000 C 232.491 328.000,234.161 326.867,234.824 326.721 C 235.126 326.654,235.707 326.240,236.117 325.800 C 236.526 325.360,236.725 325.260,236.558 325.579 C 236.381 325.917,236.784 325.781,237.528 325.251 C 238.227 324.753,238.800 324.178,238.800 323.973 C 238.800 323.768,238.935 323.629,239.100 323.664 C 239.759 323.803,240.802 323.076,240.832 322.457 C 240.851 322.061,240.942 321.994,241.061 322.288 C 241.272 322.808,241.426 322.722,243.387 321.000 C 243.887 320.560,244.534 320.144,244.823 320.075 C 245.113 320.006,245.676 319.574,246.075 319.114 C 246.474 318.654,246.805 318.440,246.812 318.639 C 246.819 318.837,247.008 318.685,247.232 318.300 C 247.456 317.915,247.827 317.600,248.056 317.600 C 248.285 317.600,248.829 317.195,249.266 316.700 C 249.703 316.205,249.938 316.038,249.789 316.330 C 249.563 316.769,249.661 316.769,250.363 316.331 C 250.828 316.040,251.313 315.474,251.441 315.072 C 251.574 314.651,251.911 314.434,252.236 314.559 C 252.546 314.678,252.800 314.590,252.800 314.364 C 252.800 314.138,252.980 314.064,253.200 314.200 C 253.420 314.336,253.600 314.177,253.600 313.847 C 253.600 313.517,253.808 313.119,254.062 312.962 C 254.365 312.774,254.424 312.869,254.232 313.238 C 254.072 313.547,254.197 313.488,254.510 313.106 C 254.823 312.725,255.174 312.508,255.291 312.624 C 255.408 312.741,256.217 312.108,257.089 311.218 C 257.961 310.328,258.894 309.600,259.161 309.600 C 259.429 309.600,259.548 309.439,259.426 309.242 C 259.213 308.897,259.898 308.449,260.483 308.551 C 260.638 308.578,261.057 308.240,261.412 307.800 C 261.768 307.360,261.944 307.227,261.804 307.504 C 261.663 307.781,262.369 307.454,263.374 306.776 C 264.942 305.717,266.060 304.621,264.738 305.438 C 264.450 305.616,264.385 305.548,264.566 305.255 C 264.725 304.998,264.983 304.866,265.139 304.962 C 265.295 305.059,265.867 304.776,266.411 304.334 C 266.955 303.892,267.147 303.664,266.838 303.827 C 266.463 304.025,266.373 303.967,266.568 303.651 C 266.729 303.391,267.076 303.228,267.340 303.289 C 267.945 303.428,270.062 301.795,269.720 301.453 C 269.581 301.314,269.760 301.200,270.119 301.200 C 270.478 301.200,270.967 300.835,271.206 300.389 C 271.445 299.943,271.803 299.678,272.002 299.802 C 272.202 299.925,272.662 299.571,273.026 299.016 C 273.390 298.461,273.848 298.106,274.044 298.227 C 274.240 298.348,274.400 298.246,274.400 298.000 C 274.400 297.754,274.584 297.667,274.810 297.806 C 275.035 297.945,275.194 297.911,275.163 297.730 C 275.016 296.888,275.251 296.400,275.800 296.400 C 276.130 296.400,276.400 296.220,276.400 296.000 C 276.400 295.780,276.738 295.600,277.151 295.600 C 278.019 295.600,278.934 294.668,278.497 294.230 C 278.333 294.067,278.380 293.970,278.600 294.014 C 279.449 294.185,280.036 293.983,279.800 293.600 C 279.664 293.380,279.743 293.200,279.976 293.200 C 280.209 293.200,280.760 292.840,281.200 292.400 C 281.640 291.960,282.270 291.600,282.600 291.600 C 282.930 291.600,283.200 291.319,283.200 290.976 C 283.200 290.633,283.380 290.464,283.600 290.600 C 283.820 290.736,284.000 290.567,284.000 290.224 C 284.000 289.881,284.225 289.645,284.500 289.700 C 284.775 289.755,284.951 289.501,284.890 289.135 C 284.809 288.641,284.994 288.526,285.608 288.686 C 286.174 288.834,286.397 288.729,286.317 288.351 C 286.253 288.048,286.502 287.798,286.872 287.795 C 287.618 287.789,288.200 287.333,288.200 286.753 C 288.200 286.544,288.650 286.140,289.200 285.854 C 289.750 285.568,290.155 285.124,290.100 284.867 C 290.045 284.610,290.152 284.400,290.339 284.400 C 290.903 284.400,292.404 282.938,292.126 282.659 C 291.983 282.517,292.347 282.400,292.933 282.400 C 293.733 282.400,294.000 282.200,294.000 281.600 C 294.000 281.039,294.269 280.798,294.900 280.794 C 295.628 280.789,295.685 280.714,295.200 280.400 C 294.717 280.088,294.781 280.011,295.524 280.006 C 296.036 280.003,296.337 279.822,296.200 279.600 C 296.064 279.380,296.129 279.200,296.345 279.200 C 296.560 279.200,297.509 278.435,298.454 277.500 C 299.398 276.565,300.267 275.827,300.385 275.860 C 300.503 275.893,300.555 275.758,300.500 275.560 C 300.445 275.362,300.779 275.200,301.243 275.200 C 301.819 275.200,302.014 275.015,301.860 274.613 C 301.736 274.290,301.807 273.919,302.017 273.789 C 302.228 273.659,302.400 273.765,302.400 274.025 C 302.400 274.371,302.566 274.360,303.019 273.984 C 303.513 273.574,303.533 273.404,303.119 273.141 C 302.753 272.909,302.851 272.810,303.451 272.806 C 304.415 272.799,305.345 271.894,304.897 271.399 C 304.733 271.219,304.799 271.185,305.042 271.324 C 305.594 271.638,307.318 269.863,306.904 269.406 C 306.737 269.222,306.825 269.201,307.101 269.360 C 307.415 269.541,307.736 269.305,307.964 268.724 C 308.330 267.792,309.801 266.334,310.086 266.620 C 310.237 266.771,311.928 264.891,313.615 262.696 C 314.082 262.089,314.603 261.678,314.772 261.783 C 315.043 261.950,316.800 260.257,316.800 259.828 C 316.800 259.585,319.362 257.022,319.617 257.010 C 320.213 256.982,322.801 254.020,322.806 253.360 C 322.810 252.827,322.908 252.750,323.132 253.103 C 323.367 253.474,323.679 253.343,324.325 252.600 C 325.281 251.500,325.463 250.990,324.738 251.438 C 324.459 251.611,324.385 251.548,324.551 251.279 C 324.702 251.035,325.054 250.923,325.333 251.030 C 325.636 251.146,326.062 250.660,326.388 249.830 C 326.689 249.064,327.085 248.529,327.268 248.642 C 327.450 248.755,327.600 248.657,327.600 248.424 C 327.600 247.887,329.069 246.400,329.600 246.400 C 329.820 246.400,330.000 246.040,330.000 245.600 C 330.000 245.142,330.267 244.800,330.624 244.800 C 330.967 244.800,331.149 244.640,331.028 244.445 C 330.908 244.250,331.185 243.993,331.645 243.872 C 332.109 243.751,332.362 243.462,332.215 243.224 C 331.924 242.753,332.887 241.600,333.571 241.600 C 333.807 241.600,334.000 241.354,334.000 241.054 C 334.000 240.206,335.613 238.361,336.094 238.658 C 336.330 238.804,336.409 238.738,336.269 238.512 C 336.129 238.286,336.445 237.778,336.970 237.384 C 337.494 236.990,337.832 236.427,337.719 236.134 C 337.601 235.825,337.786 235.600,338.157 235.600 C 338.511 235.600,338.755 235.375,338.700 235.100 C 338.645 234.825,338.822 234.644,339.093 234.698 C 339.364 234.751,339.708 234.301,339.857 233.698 C 340.006 233.094,340.459 232.309,340.864 231.953 C 341.269 231.597,341.600 231.012,341.600 230.653 C 341.600 230.244,341.937 229.998,342.500 229.994 C 343.228 229.989,343.285 229.914,342.800 229.600 C 342.400 229.342,342.367 229.210,342.700 229.206 C 342.975 229.203,343.200 228.942,343.200 228.627 C 343.200 228.312,343.584 227.932,344.053 227.783 C 344.723 227.571,344.787 227.437,344.353 227.162 C 343.917 226.886,343.950 226.811,344.513 226.806 C 344.904 226.803,345.342 226.485,345.485 226.100 C 345.628 225.715,346.036 225.130,346.393 224.800 C 346.749 224.470,347.360 223.514,347.751 222.676 C 348.141 221.838,348.721 221.052,349.040 220.929 C 349.516 220.747,349.528 220.593,349.110 220.077 C 348.716 219.589,348.713 219.515,349.100 219.747 C 349.413 219.935,349.600 219.819,349.600 219.438 C 349.600 219.102,349.975 218.627,350.434 218.382 C 350.893 218.136,351.166 217.833,351.040 217.707 C 350.915 217.582,351.125 217.223,351.506 216.910 C 351.969 216.530,352.000 216.427,351.600 216.600 C 351.270 216.743,351.360 216.568,351.800 216.212 C 352.240 215.857,352.557 215.438,352.505 215.283 C 352.260 214.557,352.889 213.497,353.238 214.047 C 353.510 214.477,353.589 214.433,353.594 213.847 C 353.597 213.433,353.988 212.758,354.461 212.347 C 355.040 211.845,355.138 211.598,354.761 211.594 C 354.301 211.589,354.296 211.527,354.734 211.249 C 355.028 211.063,355.236 210.841,355.197 210.755 C 355.054 210.443,356.138 208.400,356.446 208.400 C 356.621 208.400,356.882 207.772,357.026 207.004 C 357.170 206.235,357.439 205.700,357.624 205.815 C 357.809 205.929,358.153 205.661,358.389 205.220 C 358.756 204.534,358.716 204.457,358.109 204.687 C 357.674 204.853,357.831 204.555,358.517 203.917 C 359.290 203.197,359.474 202.814,359.117 202.670 C 358.721 202.512,358.717 202.456,359.100 202.432 C 359.375 202.414,359.600 202.040,359.600 201.600 C 359.600 201.160,359.780 200.800,360.000 200.800 C 360.220 200.800,360.400 200.350,360.400 199.800 C 360.400 199.250,360.580 198.800,360.800 198.800 C 361.020 198.800,361.200 198.519,361.200 198.176 C 361.200 197.807,361.388 197.669,361.662 197.838 C 361.936 198.007,362.015 197.949,361.858 197.694 C 361.712 197.458,361.864 196.993,362.196 196.661 C 362.528 196.329,362.800 195.785,362.800 195.452 C 362.800 195.119,362.980 194.736,363.200 194.600 C 363.420 194.464,363.600 193.543,363.600 192.553 C 363.600 191.455,363.756 190.849,364.000 191.000 C 364.220 191.136,364.400 190.866,364.400 190.400 C 364.400 189.934,364.580 189.664,364.800 189.800 C 365.020 189.936,365.200 189.677,365.200 189.224 C 365.200 188.771,365.379 188.400,365.597 188.400 C 365.816 188.400,365.928 187.995,365.846 187.500 C 365.764 187.005,365.991 186.254,366.349 185.831 C 366.707 185.408,366.775 185.194,366.500 185.355 C 366.225 185.516,366.000 185.457,366.000 185.224 C 366.000 184.991,366.157 184.800,366.348 184.800 C 366.692 184.800,367.733 181.605,367.733 180.548 C 367.733 180.246,367.844 180.000,367.979 180.000 C 368.194 180.000,368.399 178.940,368.502 177.300 C 368.519 177.025,368.648 176.800,368.789 176.800 C 368.929 176.800,369.016 175.990,368.983 175.000 C 368.940 173.727,369.080 173.200,369.461 173.200 C 369.758 173.200,370.000 173.009,370.000 172.776 C 370.000 172.543,369.775 172.488,369.500 172.653 C 369.109 172.888,369.111 172.817,369.507 172.327 C 369.786 171.983,369.913 171.437,369.789 171.115 C 369.665 170.792,369.842 170.297,370.182 170.015 C 370.880 169.435,371.004 168.173,370.399 167.799 C 370.157 167.650,370.136 167.284,370.346 166.876 C 370.537 166.504,370.670 165.451,370.641 164.534 C 370.612 163.618,370.707 162.942,370.852 163.032 C 371.146 163.214,371.616 162.193,371.572 161.467 C 371.556 161.210,371.379 161.360,371.178 161.800 C 370.848 162.523,370.821 162.504,370.894 161.600 C 370.939 161.050,370.837 160.377,370.667 160.105 C 370.456 159.765,370.554 159.684,370.979 159.847 C 371.784 160.156,371.917 150.877,371.120 150.080 C 370.747 149.707,370.747 149.600,371.120 149.600 C 371.384 149.600,371.586 149.285,371.568 148.900 C 371.550 148.482,371.456 148.401,371.335 148.700 C 370.941 149.677,370.423 149.193,370.800 148.200 C 371.009 147.650,371.050 147.200,370.890 147.200 C 370.731 147.200,370.616 145.895,370.635 144.300 C 370.654 142.705,370.474 141.140,370.235 140.823 C 369.889 140.364,369.922 140.320,370.400 140.608 C 370.904 140.912,370.898 140.812,370.360 139.985 C 369.944 139.345,369.774 138.416,369.877 137.334 C 369.963 136.418,369.847 135.552,369.617 135.411 C 369.388 135.269,369.200 134.749,369.200 134.256 C 369.200 133.763,368.975 133.118,368.700 132.821 C 368.300 132.390,368.300 132.339,368.700 132.565 C 369.010 132.740,369.200 132.602,369.200 132.200 C 369.200 131.844,369.020 131.664,368.800 131.800 C 368.554 131.952,368.400 131.287,368.400 130.073 C 368.400 128.870,368.181 127.917,367.841 127.634 C 367.534 127.379,367.375 126.817,367.488 126.385 C 367.601 125.951,367.494 125.600,367.247 125.600 C 367.001 125.600,366.800 125.240,366.800 124.800 C 366.800 124.360,366.575 123.997,366.300 123.994 C 365.942 123.989,365.958 123.888,366.357 123.635 C 366.815 123.345,366.763 123.071,366.057 122.080 C 365.586 121.418,365.197 120.274,365.194 119.538 C 365.189 118.527,365.093 118.347,364.800 118.800 C 364.510 119.249,364.411 119.042,364.406 117.975 C 364.402 117.111,364.086 116.213,363.600 115.692 C 363.160 115.220,362.800 114.592,362.800 114.297 C 362.800 114.002,362.575 113.518,362.300 113.221 C 361.925 112.817,361.922 112.751,362.289 112.958 C 362.557 113.109,362.389 112.506,361.914 111.617 C 361.440 110.727,360.770 109.997,360.426 109.994 C 359.998 109.990,359.948 109.893,360.268 109.690 C 360.614 109.470,360.555 109.001,360.041 107.890 C 359.659 107.063,359.224 106.510,359.073 106.660 C 358.923 106.810,358.800 106.533,358.800 106.043 C 358.800 105.514,358.627 105.260,358.373 105.417 C 358.139 105.562,357.980 105.437,358.021 105.140 C 358.172 104.036,357.969 103.610,356.700 102.373 C 355.985 101.676,355.625 101.228,355.900 101.377 C 356.692 101.805,356.485 101.071,355.400 99.600 C 354.850 98.855,354.400 98.010,354.400 97.722 C 354.400 97.435,354.246 97.200,354.058 97.200 C 353.347 97.200,351.561 95.185,351.842 94.698 C 351.999 94.424,351.989 94.325,351.820 94.478 C 351.395 94.860,349.601 92.656,349.594 91.742 C 349.589 91.117,349.527 91.094,349.200 91.600 C 348.886 92.085,348.811 92.028,348.806 91.300 C 348.803 90.805,348.620 90.377,348.400 90.350 C 348.180 90.323,347.775 90.273,347.500 90.241 C 347.225 90.209,347.057 89.853,347.127 89.451 C 347.196 89.049,347.089 88.822,346.887 88.946 C 346.685 89.071,346.299 88.774,346.029 88.286 C 345.759 87.799,344.840 86.860,343.987 86.200 C 343.135 85.540,342.429 84.815,342.419 84.589 C 342.396 84.078,340.709 82.581,340.300 82.707 C 340.135 82.758,340.000 82.519,340.000 82.176 C 340.000 81.833,339.822 81.663,339.605 81.797 C 339.369 81.943,339.316 81.762,339.474 81.351 C 339.679 80.816,339.584 80.721,339.048 80.926 C 338.549 81.118,338.170 80.861,337.679 79.998 C 337.061 78.912,336.871 78.763,336.178 78.818 C 336.056 78.827,335.593 78.422,335.148 77.918 C 334.703 77.413,334.464 77.243,334.618 77.540 C 334.842 77.975,334.732 77.992,334.048 77.626 C 333.582 77.376,333.200 77.078,333.200 76.962 C 333.200 76.847,333.380 76.864,333.600 77.000 C 333.820 77.136,334.000 77.057,334.000 76.824 C 334.000 76.591,333.640 76.400,333.200 76.400 C 332.760 76.400,332.400 76.220,332.400 76.000 C 332.400 75.780,332.136 75.600,331.814 75.600 C 331.492 75.600,331.035 75.240,330.800 74.800 C 330.565 74.360,330.058 74.000,329.675 74.000 C 329.291 74.000,328.670 73.640,328.293 73.200 C 327.916 72.760,327.272 72.400,326.862 72.400 C 326.452 72.400,325.596 71.909,324.958 71.309 C 324.321 70.709,323.658 70.214,323.485 70.209 C 323.312 70.204,323.018 69.952,322.830 69.649 C 322.643 69.346,322.300 69.214,322.069 69.357 C 321.838 69.500,321.503 69.388,321.325 69.108 C 320.894 68.434,319.181 67.486,318.901 67.766 C 318.779 67.888,318.476 67.709,318.227 67.370 C 317.979 67.030,317.189 66.735,316.473 66.714 C 315.757 66.694,315.075 66.522,314.958 66.332 C 314.841 66.142,314.547 66.109,314.304 66.259 C 314.029 66.429,313.952 66.302,314.099 65.919 C 314.287 65.429,314.040 65.324,312.867 65.395 C 311.032 65.507,310.279 65.126,311.604 64.757 C 312.446 64.522,312.365 64.474,311.076 64.440 C 310.131 64.415,309.650 64.242,309.810 63.984 C 309.977 63.713,309.700 63.660,309.018 63.831 C 308.245 64.025,307.999 63.950,308.084 63.547 C 308.164 63.168,307.839 63.026,307.024 63.086 C 306.377 63.133,305.594 62.961,305.283 62.703 C 304.703 62.221,303.923 61.973,302.700 61.881 C 302.315 61.852,302.000 61.677,302.000 61.491 C 302.000 61.305,301.839 61.252,301.642 61.374 C 301.446 61.495,300.600 61.309,299.763 60.959 C 298.788 60.551,297.705 60.409,296.745 60.562 C 295.903 60.697,295.140 60.626,295.001 60.401 C 294.864 60.180,294.054 60.000,293.200 60.000 C 292.346 60.000,291.536 59.820,291.400 59.600 C 291.264 59.380,290.973 59.200,290.753 59.200 C 290.533 59.200,290.464 59.380,290.600 59.600 C 290.879 60.052,290.283 60.149,289.855 59.722 C 289.363 59.230,288.229 59.230,287.916 59.722 C 287.686 60.084,287.611 60.076,287.606 59.692 C 287.601 59.295,285.547 59.191,278.200 59.215 C 272.609 59.234,268.800 59.399,268.800 59.623 C 268.800 59.830,268.609 60.000,268.376 60.000 C 268.143 60.000,268.064 59.820,268.200 59.600 C 268.336 59.380,268.257 59.200,268.024 59.200 C 267.791 59.200,267.600 59.357,267.600 59.549 C 267.600 59.900,264.949 60.321,261.600 60.503 C 260.503 60.562,259.834 60.780,259.887 61.060 C 259.946 61.372,259.463 61.452,258.387 61.307 C 256.875 61.105,256.138 61.666,257.300 62.135 C 257.599 62.256,257.518 62.350,257.100 62.368 C 256.715 62.386,256.397 62.175,256.394 61.900 C 256.390 61.590,256.276 61.552,256.094 61.800 C 255.932 62.020,255.350 62.210,254.800 62.223 C 254.170 62.237,253.845 62.447,253.923 62.790 C 254.023 63.239,253.935 63.244,253.423 62.819 C 252.991 62.461,252.800 62.442,252.800 62.759 C 252.800 63.045,252.430 63.122,251.804 62.965 C 251.106 62.790,250.736 62.900,250.571 63.332 C 250.440 63.672,250.087 63.855,249.785 63.739 C 249.484 63.623,248.848 63.801,248.373 64.134 C 247.897 64.467,247.257 64.643,246.950 64.525 C 246.571 64.380,246.468 64.511,246.629 64.931 C 246.821 65.431,246.611 65.518,245.533 65.385 C 244.575 65.266,244.369 65.328,244.800 65.604 C 245.268 65.903,245.166 65.989,244.333 65.994 C 243.747 65.997,243.207 66.164,243.133 66.363 C 243.060 66.563,242.640 66.788,242.200 66.863 C 241.760 66.939,241.160 67.227,240.868 67.504 C 240.575 67.781,240.177 67.909,239.983 67.789 C 239.789 67.669,238.903 68.030,238.015 68.591 C 237.127 69.151,236.396 69.473,236.391 69.305 C 236.386 69.137,236.011 69.450,235.556 70.000 C 235.102 70.550,234.867 70.730,235.034 70.400 C 235.258 69.957,235.127 69.984,234.536 70.501 C 234.096 70.886,233.600 71.066,233.434 70.901 C 233.269 70.735,233.193 70.870,233.267 71.200 C 233.348 71.568,233.131 71.779,232.704 71.745 C 232.322 71.715,232.107 71.850,232.228 72.045 C 232.349 72.240,232.006 72.400,231.466 72.400 C 230.927 72.400,230.378 72.681,230.246 73.025 C 230.114 73.369,229.824 73.539,229.603 73.402 C 229.381 73.265,229.200 73.316,229.200 73.515 C 229.200 74.173,227.823 75.430,226.355 76.113 C 225.560 76.483,224.685 77.057,224.410 77.388 C 224.135 77.720,223.750 77.893,223.555 77.772 C 223.360 77.651,223.200 77.819,223.200 78.145 C 223.200 78.479,222.670 78.853,221.981 79.004 C 221.024 79.214,220.857 79.386,221.203 79.804 C 221.545 80.216,221.482 80.310,220.922 80.220 C 219.950 80.064,218.800 80.698,218.800 81.390 C 218.800 81.700,218.592 82.081,218.338 82.238 C 218.042 82.421,217.985 82.347,218.180 82.032 C 218.402 81.673,218.258 81.682,217.642 82.067 C 217.179 82.356,216.800 82.824,216.800 83.106 C 216.800 83.389,216.395 83.789,215.900 83.996 C 214.506 84.579,213.203 85.851,213.168 86.664 C 213.151 87.078,213.049 87.183,212.936 86.904 C 212.712 86.350,212.184 86.783,211.337 88.217 C 211.083 88.648,210.678 88.955,210.437 88.900 C 210.047 88.811,209.944 89.048,210.025 89.851 C 210.039 89.988,209.654 90.303,209.170 90.551 C 208.686 90.798,208.357 91.090,208.438 91.200 C 208.520 91.310,207.922 92.104,207.110 92.965 C 206.298 93.826,205.746 94.712,205.882 94.933 C 206.026 95.166,205.875 95.238,205.524 95.103 C 204.902 94.864,203.479 96.146,203.900 96.566 C 204.028 96.695,203.823 96.800,203.443 96.800 C 203.063 96.800,202.852 96.961,202.974 97.158 C 203.096 97.355,202.926 97.619,202.598 97.746 C 202.269 97.872,202.000 98.261,202.000 98.611 C 202.000 98.961,201.820 99.136,201.600 99.000 C 201.380 98.864,201.200 99.134,201.200 99.600 C 201.200 100.066,201.022 100.337,200.805 100.203 C 200.578 100.063,200.511 100.223,200.647 100.579 C 200.802 100.982,200.659 101.200,200.243 101.200 C 199.889 101.200,199.600 100.975,199.599 100.700 C 199.598 100.059,197.507 97.600,196.963 97.600 C 196.735 97.600,196.302 96.970,196.000 96.200 C 195.653 95.317,195.183 94.800,194.725 94.800 C 194.326 94.800,194.000 94.660,194.000 94.489 C 194.000 94.318,193.470 93.598,192.823 92.889 C 192.175 92.180,191.860 91.589,192.123 91.575 C 192.385 91.561,192.195 91.387,191.700 91.188 C 191.205 90.989,190.800 90.539,190.800 90.189 C 190.800 89.805,190.614 89.667,190.332 89.842 C 190.017 90.036,189.948 89.913,190.119 89.466 C 190.260 89.100,190.201 88.800,189.987 88.800 C 189.774 88.800,189.600 88.987,189.600 89.216 C 189.600 89.456,189.368 89.415,189.050 89.118 C 188.748 88.835,188.586 88.381,188.691 88.108 C 188.796 87.835,188.431 87.440,187.880 87.230 C 187.329 87.021,186.736 86.613,186.562 86.325 C 186.331 85.940,186.453 85.953,187.023 86.373 C 187.450 86.689,187.350 86.490,186.800 85.932 C 186.250 85.374,185.744 85.059,185.675 85.233 C 185.497 85.685,184.000 84.324,184.000 83.711 C 184.000 83.430,183.775 83.245,183.500 83.300 C 183.225 83.355,183.052 83.153,183.116 82.851 C 183.189 82.508,183.008 82.388,182.637 82.531 C 182.212 82.694,182.112 82.573,182.290 82.110 C 182.478 81.619,182.371 81.525,181.849 81.726 C 181.438 81.884,181.257 81.831,181.403 81.595 C 181.537 81.378,181.356 81.200,181.000 81.200 C 180.644 81.200,180.464 81.020,180.600 80.800 C 180.736 80.580,180.689 80.400,180.496 80.400 C 180.302 80.400,179.545 79.866,178.814 79.212 C 178.082 78.559,177.330 78.120,177.142 78.236 C 176.954 78.352,176.800 78.246,176.800 78.000 C 176.800 77.754,176.620 77.664,176.400 77.800 C 176.180 77.936,176.000 77.885,176.000 77.688 C 176.000 77.490,175.540 77.119,174.977 76.863 C 174.415 76.606,174.064 76.219,174.198 76.003 C 174.337 75.778,174.175 75.711,173.821 75.847 C 173.446 75.991,173.200 75.869,173.200 75.539 C 173.200 75.238,172.821 74.756,172.358 74.467 C 171.895 74.178,171.636 74.134,171.782 74.370 C 171.928 74.607,171.869 74.800,171.651 74.800 C 171.432 74.800,171.140 74.440,171.000 74.000 C 170.858 73.553,170.395 73.200,169.949 73.200 C 169.511 73.200,169.264 73.020,169.400 72.800 C 169.536 72.580,169.367 72.400,169.024 72.400 C 168.681 72.400,168.397 72.175,168.394 71.900 C 168.389 71.530,168.310 71.522,168.091 71.866 C 167.868 72.217,167.624 72.207,167.104 71.826 C 166.723 71.548,166.530 71.204,166.673 71.060 C 166.816 70.917,166.543 70.800,166.067 70.800 C 165.590 70.800,165.200 70.620,165.200 70.400 C 165.200 70.180,165.065 70.021,164.900 70.047 C 163.777 70.225,163.031 69.968,163.600 69.600 C 164.115 69.267,164.101 69.204,163.500 69.156 C 162.217 69.053,160.859 68.500,159.925 67.700 C 159.554 67.382,159.045 67.249,158.793 67.404 C 158.542 67.560,158.091 67.337,157.791 66.909 C 157.476 66.458,156.857 66.166,156.323 66.214 C 155.807 66.261,154.940 65.871,154.358 65.330 C 153.785 64.797,153.155 64.408,152.958 64.466 C 152.761 64.523,152.208 64.352,151.729 64.086 C 151.250 63.820,150.598 63.703,150.281 63.824 C 149.960 63.947,149.593 63.758,149.455 63.398 C 149.267 62.910,148.868 62.803,147.842 62.966 C 146.884 63.119,146.415 63.016,146.263 62.619 C 146.117 62.240,145.573 62.100,144.595 62.191 C 143.539 62.289,143.197 62.186,143.340 61.813 C 143.528 61.321,142.956 61.184,140.503 61.133 C 140.009 61.123,139.703 60.957,139.823 60.763 C 139.942 60.570,139.311 60.482,138.420 60.568 C 137.515 60.655,136.898 60.564,137.023 60.362 C 137.148 60.161,136.168 60.000,134.824 60.000 C 133.475 60.000,132.400 59.823,132.400 59.600 C 132.400 59.380,132.209 59.200,131.976 59.200 C 131.743 59.200,131.680 59.425,131.835 59.700 C 132.061 60.100,132.010 60.100,131.579 59.700 C 130.808 58.985,110.778 58.982,110.063 59.697 C 109.668 60.092,109.499 60.084,109.233 59.654 C 109.001 59.278,108.817 59.248,108.626 59.557 " stroke="none" fill="#fc5c5c" fill-rule="evenodd"></path><path id="path1" d="M310.978 65.164 C 311.226 65.566,312.218 65.515,312.655 65.078 C 312.808 64.925,312.443 64.800,311.843 64.800 C 311.243 64.800,310.854 64.964,310.978 65.164 M85.388 65.620 C 85.007 66.235,85.528 66.632,86.042 66.118 C 86.329 65.831,86.336 65.607,86.062 65.439 C 85.839 65.300,85.535 65.382,85.388 65.620 M314.000 66.024 C 314.000 66.257,314.168 66.344,314.372 66.217 C 314.577 66.091,314.858 66.170,314.996 66.393 C 315.134 66.617,315.451 66.800,315.700 66.800 C 315.949 66.800,315.804 66.536,315.376 66.213 C 314.448 65.510,314.000 65.449,314.000 66.024 M226.162 75.658 C 225.633 76.255,225.583 76.438,226.000 76.259 C 226.330 76.117,226.915 75.889,227.300 75.754 C 227.685 75.618,228.000 75.348,228.000 75.153 C 228.000 74.499,226.930 74.793,226.162 75.658 M313.802 262.398 C 313.403 262.839,313.207 263.200,313.367 263.200 C 313.788 263.200,314.928 261.995,314.712 261.779 C 314.611 261.678,314.202 261.956,313.802 262.398 M99.677 275.974 C 99.943 276.400,100.305 276.658,100.483 276.549 C 100.661 276.439,100.548 276.090,100.232 275.774 C 99.412 274.955,99.109 275.065,99.677 275.974 M259.876 308.574 C 259.447 308.899,259.317 309.225,259.556 309.373 C 259.778 309.510,260.155 309.257,260.394 308.811 C 260.901 307.863,260.847 307.838,259.876 308.574 " stroke="none" fill="#fc5c64" fill-rule="evenodd"></path><path id="path2" d="" stroke="none" fill="#1005c5c" fill-rule="evenodd"></path><path id="path3" d="" stroke="none" fill="#1005c5c" fill-rule="evenodd"></path><path id="path4" d="" stroke="none" fill="#1005c5c" fill-rule="evenodd"></path></g></svg>